<svg width="726" height="128" viewBox="0 0 726 128" fill="none" xmlns="http://www.w3.org/2000/svg">
<path d="M150.002 94.516V79.698C149.093 80.07 147.832 80.4833 146.22 80.938C144.649 81.3927 143.099 81.62 141.57 81.62C138.759 81.62 136.486 81.0827 134.75 80.008C133.014 78.892 131.753 77.1767 130.968 74.862C130.224 72.506 129.852 69.5507 129.852 65.996C129.852 61.8627 130.327 58.5767 131.278 56.138C132.229 53.6993 133.799 51.9633 135.99 50.93C138.181 49.8553 141.095 49.318 144.732 49.318C145.6 49.318 146.675 49.3593 147.956 49.442C149.279 49.4833 150.643 49.566 152.048 49.69C153.453 49.814 154.693 49.9173 155.768 50V94.516H150.002ZM142.5 76.598C143.947 76.598 145.352 76.412 146.716 76.04C148.121 75.668 149.217 75.3167 150.002 74.986V54.588C149.258 54.5053 148.369 54.4433 147.336 54.402C146.303 54.3193 145.455 54.278 144.794 54.278C142.355 54.278 140.475 54.712 139.152 55.58C137.829 56.4067 136.92 57.688 136.424 59.424C135.928 61.1187 135.68 63.2887 135.68 65.934C135.68 69.5713 136.197 72.258 137.23 73.994C138.305 75.73 140.061 76.598 142.5 76.598ZM173.762 81.62C171.075 81.62 169.009 81.0827 167.562 80.008C166.157 78.892 165.185 77.1973 164.648 74.924C164.111 72.6507 163.842 69.716 163.842 66.12V49.938H169.608V66.058C169.608 68.6207 169.732 70.6667 169.98 72.196C170.228 73.7253 170.765 74.8207 171.592 75.482C172.46 76.1433 173.741 76.474 175.436 76.474C177.089 76.474 178.598 76.2467 179.962 75.792C181.367 75.3373 182.504 74.9033 183.372 74.49V49.938H189.076V81H183.372V78.892C182.049 79.636 180.623 80.2767 179.094 80.814C177.606 81.3513 175.829 81.62 173.762 81.62ZM204.583 81.62C201.648 81.62 199.416 80.814 197.887 79.202C196.357 77.59 195.593 75.2133 195.593 72.072C195.593 69.964 195.965 68.2693 196.709 66.988C197.453 65.6653 198.548 64.6733 199.995 64.012C201.483 63.3507 203.322 62.958 205.513 62.834L214.503 61.966V59.548C214.503 57.6053 214.069 56.2413 213.201 55.456C212.333 54.6293 211.031 54.216 209.295 54.216C208.22 54.216 206.959 54.2573 205.513 54.34C204.066 54.4227 202.64 54.526 201.235 54.65C199.829 54.774 198.569 54.898 197.453 55.022L197.205 50.806C198.238 50.558 199.457 50.3307 200.863 50.124C202.309 49.9173 203.818 49.7313 205.389 49.566C206.959 49.4007 208.406 49.318 209.729 49.318C212.167 49.318 214.172 49.6693 215.743 50.372C217.313 51.0747 218.471 52.17 219.215 53.658C219.959 55.146 220.331 57.068 220.331 59.424V74.676C220.413 75.5027 220.744 76.1227 221.323 76.536C221.943 76.908 222.707 77.156 223.617 77.28L223.431 81.558C222.521 81.558 221.653 81.5167 220.827 81.434C220.041 81.3927 219.318 81.2687 218.657 81.062C217.995 80.8967 217.396 80.6693 216.859 80.38C216.363 80.0493 215.887 79.6773 215.433 79.264C214.689 79.5947 213.717 79.946 212.519 80.318C211.32 80.69 210.039 81 208.675 81.248C207.311 81.496 205.947 81.62 204.583 81.62ZM205.761 77.032C206.794 77.032 207.848 76.9287 208.923 76.722C210.039 76.5153 211.093 76.288 212.085 76.04C213.077 75.7507 213.883 75.5027 214.503 75.296V65.996L206.257 66.802C204.521 66.926 203.281 67.422 202.537 68.29C201.793 69.1167 201.421 70.3153 201.421 71.886C201.421 73.498 201.772 74.7587 202.475 75.668C203.219 76.5773 204.314 77.032 205.761 77.032ZM228.937 81V49.938H234.703V52.108C235.365 51.6947 236.212 51.2813 237.245 50.868C238.279 50.4547 239.374 50.1033 240.531 49.814C241.689 49.4833 242.805 49.318 243.879 49.318C246.773 49.318 248.984 49.8347 250.513 50.868C252.043 51.86 253.097 53.4927 253.675 55.766C254.295 57.998 254.605 60.9533 254.605 64.632V81H248.777V64.942C248.777 62.3793 248.633 60.3333 248.343 58.804C248.054 57.2747 247.475 56.1793 246.607 55.518C245.739 54.8153 244.437 54.464 242.701 54.464C241.751 54.464 240.759 54.5673 239.725 54.774C238.733 54.9807 237.783 55.2493 236.873 55.58C236.005 55.9107 235.282 56.2207 234.703 56.51V81H228.937ZM272.957 81.682C270.766 81.682 269.009 81.3513 267.687 80.69C266.405 80.0287 265.475 78.892 264.897 77.28C264.359 75.6267 264.091 73.312 264.091 70.336V54.836H259.875V49.938H264.091V40.824H269.795V49.938H279.033V54.836H269.795V68.724C269.795 70.7493 269.877 72.3407 270.043 73.498C270.249 74.614 270.642 75.3993 271.221 75.854C271.799 76.3087 272.709 76.536 273.949 76.536C274.362 76.536 274.879 76.536 275.499 76.536C276.119 76.4947 276.759 76.4533 277.421 76.412C278.082 76.3293 278.661 76.2673 279.157 76.226L279.467 80.938C278.516 81.1033 277.4 81.2687 276.119 81.434C274.837 81.5993 273.783 81.682 272.957 81.682ZM285.7 81V54.836H282.042V49.938H285.7V47.52C285.7 44.544 285.969 42.2293 286.506 40.576C287.043 38.8813 287.953 37.724 289.234 37.104C290.515 36.4427 292.21 36.112 294.318 36.112C294.855 36.112 295.558 36.1327 296.426 36.174C297.335 36.2153 298.203 36.2773 299.03 36.36C299.857 36.4013 300.456 36.4633 300.828 36.546L300.766 41.196C300.063 41.1547 299.216 41.134 298.224 41.134C297.232 41.134 296.426 41.134 295.806 41.134C294.69 41.134 293.822 41.32 293.202 41.692C292.582 42.0227 292.127 42.6633 291.838 43.614C291.59 44.5233 291.466 45.8253 291.466 47.52V49.938H300.022V54.836H291.466V81H285.7ZM317.504 81.62C314.032 81.62 311.304 81.0413 309.32 79.884C307.336 78.6853 305.93 76.8667 305.104 74.428C304.277 71.9893 303.864 68.8893 303.864 65.128C303.864 61.532 304.298 58.5767 305.166 56.262C306.075 53.9473 307.522 52.2113 309.506 51.054C311.531 49.8967 314.197 49.318 317.504 49.318C320.852 49.318 323.518 49.8967 325.502 51.054C327.486 52.2113 328.912 53.9473 329.78 56.262C330.689 58.5767 331.144 61.532 331.144 65.128C331.144 68.8893 330.73 71.9893 329.904 74.428C329.118 76.8667 327.734 78.6853 325.75 79.884C323.766 81.0413 321.017 81.62 317.504 81.62ZM317.504 76.722C319.694 76.722 321.348 76.3293 322.464 75.544C323.58 74.7587 324.324 73.5187 324.696 71.824C325.068 70.088 325.254 67.856 325.254 65.128C325.254 62.4413 325.026 60.3127 324.572 58.742C324.117 57.13 323.332 55.9727 322.216 55.27C321.1 54.5673 319.529 54.216 317.504 54.216C315.52 54.216 313.949 54.5673 312.792 55.27C311.676 55.9727 310.89 57.13 310.436 58.742C309.981 60.3127 309.754 62.4413 309.754 65.128C309.754 67.856 309.94 70.088 310.312 71.824C310.684 73.5187 311.407 74.7587 312.482 75.544C313.598 76.3293 315.272 76.722 317.504 76.722ZM338.224 81V49.938H343.99V53.968C344.734 53.4307 345.685 52.852 346.842 52.232C348 51.612 349.26 51.0333 350.624 50.496C352.03 49.9173 353.414 49.504 354.778 49.256V55.022C353.456 55.27 352.092 55.6213 350.686 56.076C349.322 56.5307 348.041 57.0267 346.842 57.564C345.685 58.06 344.734 58.5147 343.99 58.928V81H338.224ZM359.84 81V49.938H365.606V52.108C366.556 51.5293 367.858 50.93 369.512 50.31C371.206 49.6487 372.839 49.318 374.41 49.318C376.435 49.318 378.068 49.566 379.308 50.062C380.548 50.558 381.56 51.364 382.346 52.48C383.131 52.0253 384.102 51.55 385.26 51.054C386.458 50.558 387.74 50.1447 389.104 49.814C390.468 49.4833 391.811 49.318 393.134 49.318C395.986 49.318 398.176 49.814 399.706 50.806C401.276 51.798 402.351 53.4307 402.93 55.704C403.508 57.936 403.798 60.912 403.798 64.632V81H398.094V65.004C398.094 62.4413 397.949 60.3953 397.66 58.866C397.37 57.3367 396.792 56.2207 395.924 55.518C395.097 54.8153 393.816 54.464 392.08 54.464C390.55 54.464 389.042 54.6913 387.554 55.146C386.107 55.6007 384.97 56.0553 384.144 56.51C384.433 57.502 384.619 58.7833 384.702 60.354C384.826 61.8833 384.888 63.454 384.888 65.066V81H379.122V65.19C379.122 62.5447 378.977 60.4573 378.688 58.928C378.44 57.3573 377.882 56.2207 377.014 55.518C376.146 54.8153 374.864 54.464 373.17 54.464C371.723 54.464 370.276 54.6913 368.83 55.146C367.424 55.6007 366.35 56.0553 365.606 56.51V81H359.84ZM426.342 95.074V35.988H429.38V95.074H426.342ZM462.339 81.558C461.388 81.558 460.417 81.4753 459.425 81.31C458.433 81.1447 457.461 80.7933 456.511 80.256C455.601 79.6773 454.775 78.83 454.031 77.714C453.287 76.598 452.687 75.0893 452.233 73.188C451.778 71.2453 451.551 68.8273 451.551 65.934C451.551 62.338 451.943 59.3207 452.729 56.882C453.555 54.402 454.919 52.542 456.821 51.302C458.722 50.062 461.326 49.442 464.633 49.442C465.997 49.442 467.464 49.5453 469.035 49.752C470.605 49.9173 471.783 50.062 472.569 50.186V35.988H475.607V81H472.631V78.582C471.928 78.9953 470.998 79.45 469.841 79.946C468.725 80.4007 467.505 80.7727 466.183 81.062C464.901 81.3927 463.62 81.558 462.339 81.558ZM462.525 78.83C463.765 78.83 465.005 78.6853 466.245 78.396C467.526 78.0653 468.725 77.6727 469.841 77.218C470.957 76.7633 471.866 76.3293 472.569 75.916V52.852C472.073 52.7693 471.349 52.666 470.399 52.542C469.448 52.418 468.456 52.3147 467.423 52.232C466.389 52.1493 465.48 52.108 464.695 52.108C462.008 52.108 459.941 52.6453 458.495 53.72C457.089 54.7947 456.097 56.3653 455.519 58.432C454.981 60.4573 454.713 62.958 454.713 65.934C454.713 68.8687 454.94 71.204 455.395 72.94C455.891 74.6347 456.511 75.916 457.255 76.784C458.04 77.6107 458.887 78.1687 459.797 78.458C460.706 78.706 461.615 78.83 462.525 78.83ZM495.666 81.558C492.607 81.558 490.21 80.938 488.474 79.698C486.738 78.458 485.518 76.6393 484.816 74.242C484.113 71.8447 483.762 68.9513 483.762 65.562C483.762 61.5113 484.32 58.3287 485.436 56.014C486.552 53.658 488.04 51.984 489.9 50.992C491.801 49.9587 493.992 49.442 496.472 49.442C500.357 49.442 503.312 50.5787 505.338 52.852C507.404 55.1253 508.438 58.9073 508.438 64.198L508.376 66.74H486.862C486.903 70.6667 487.564 73.684 488.846 75.792C490.127 77.8587 492.462 78.892 495.852 78.892C496.968 78.892 498.208 78.8713 499.572 78.83C500.936 78.7473 502.3 78.6647 503.664 78.582C505.028 78.4993 506.206 78.4167 507.198 78.334L507.322 80.876C506.33 80.9587 505.131 81.062 503.726 81.186C502.362 81.31 500.956 81.3927 499.51 81.434C498.104 81.5167 496.823 81.558 495.666 81.558ZM486.862 64.136H505.338C505.338 59.672 504.614 56.5513 503.168 54.774C501.762 52.9553 499.53 52.046 496.472 52.046C493.496 52.046 491.14 52.976 489.404 54.836C487.709 56.6547 486.862 59.7547 486.862 64.136ZM522.631 81L513.331 50H516.679L524.925 78.334H527.529L535.961 50H539.123L529.823 81H522.631ZM556.212 81.558C553.154 81.558 550.756 80.938 549.02 79.698C547.284 78.458 546.065 76.6393 545.362 74.242C544.66 71.8447 544.308 68.9513 544.308 65.562C544.308 61.5113 544.866 58.3287 545.982 56.014C547.098 53.658 548.586 51.984 550.446 50.992C552.348 49.9587 554.538 49.442 557.018 49.442C560.904 49.442 563.859 50.5787 565.884 52.852C567.951 55.1253 568.984 58.9073 568.984 64.198L568.922 66.74H547.408C547.45 70.6667 548.111 73.684 549.392 75.792C550.674 77.8587 553.009 78.892 556.398 78.892C557.514 78.892 558.754 78.8713 560.118 78.83C561.482 78.7473 562.846 78.6647 564.21 78.582C565.574 78.4993 566.752 78.4167 567.744 78.334L567.868 80.876C566.876 80.9587 565.678 81.062 564.272 81.186C562.908 81.31 561.503 81.3927 560.056 81.434C558.651 81.5167 557.37 81.558 556.212 81.558ZM547.408 64.136H565.884C565.884 59.672 565.161 56.5513 563.714 54.774C562.309 52.9553 560.077 52.046 557.018 52.046C554.042 52.046 551.686 52.976 549.95 54.836C548.256 56.6547 547.408 59.7547 547.408 64.136ZM577.226 81V35.988H580.202V81H577.226ZM601.646 81.558C598.257 81.558 595.632 81.0207 593.772 79.946C591.912 78.8713 590.631 77.1147 589.928 74.676C589.225 72.2373 588.874 69.0133 588.874 65.004C588.874 61.2427 589.287 58.2253 590.114 55.952C590.941 53.6787 592.284 52.0253 594.144 50.992C596.045 49.9587 598.546 49.442 601.646 49.442C604.787 49.442 607.288 49.9587 609.148 50.992C611.049 52.0253 612.413 53.6787 613.24 55.952C614.067 58.2253 614.48 61.2427 614.48 65.004C614.48 69.0133 614.129 72.2373 613.426 74.676C612.723 77.1147 611.442 78.8713 609.582 79.946C607.763 81.0207 605.118 81.558 601.646 81.558ZM601.646 78.892C604.498 78.892 606.606 78.4373 607.97 77.528C609.375 76.6187 610.285 75.1513 610.698 73.126C611.111 71.0593 611.318 68.352 611.318 65.004C611.318 61.7387 611.029 59.176 610.45 57.316C609.871 55.4147 608.879 54.0713 607.474 53.286C606.11 52.5007 604.167 52.108 601.646 52.108C599.166 52.108 597.223 52.5007 595.818 53.286C594.413 54.0713 593.421 55.4147 592.842 57.316C592.263 59.176 591.974 61.7387 591.974 65.004C591.974 68.352 592.181 71.0593 592.594 73.126C593.049 75.1513 593.958 76.6187 595.322 77.528C596.686 78.4373 598.794 78.892 601.646 78.892ZM622.809 95.074V50H625.785V52.48C626.488 52.0253 627.397 51.5707 628.513 51.116C629.629 50.62 630.828 50.2273 632.109 49.938C633.432 49.6073 634.734 49.442 636.015 49.442C639.859 49.442 642.628 50.7027 644.323 53.224C646.018 55.7453 646.865 59.6927 646.865 65.066C646.865 68.9513 646.41 72.1133 645.501 74.552C644.633 76.9907 643.228 78.768 641.285 79.884C639.342 81 636.759 81.558 633.535 81.558C632.006 81.558 630.497 81.4547 629.009 81.248C627.562 81.0827 626.488 80.9173 625.785 80.752V95.074H622.809ZM633.473 78.892C636.036 78.892 638.061 78.4373 639.549 77.528C641.037 76.5773 642.091 75.0893 642.711 73.064C643.372 71.0387 643.703 68.3727 643.703 65.066C643.703 60.3127 643.021 56.9853 641.657 55.084C640.293 53.1413 638.33 52.17 635.767 52.17C634.61 52.17 633.39 52.3353 632.109 52.666C630.828 52.9553 629.629 53.3273 628.513 53.782C627.438 54.2367 626.529 54.6913 625.785 55.146V78.086C626.488 78.21 627.562 78.3753 629.009 78.582C630.497 78.7887 631.985 78.892 633.473 78.892ZM665.56 81.558C662.501 81.558 660.104 80.938 658.368 79.698C656.632 78.458 655.413 76.6393 654.71 74.242C654.007 71.8447 653.656 68.9513 653.656 65.562C653.656 61.5113 654.214 58.3287 655.33 56.014C656.446 53.658 657.934 51.984 659.794 50.992C661.695 49.9587 663.886 49.442 666.366 49.442C670.251 49.442 673.207 50.5787 675.232 52.852C677.299 55.1253 678.332 58.9073 678.332 64.198L678.27 66.74H656.756C656.797 70.6667 657.459 73.684 658.74 75.792C660.021 77.8587 662.357 78.892 665.746 78.892C666.862 78.892 668.102 78.8713 669.466 78.83C670.83 78.7473 672.194 78.6647 673.558 78.582C674.922 78.4993 676.1 78.4167 677.092 78.334L677.216 80.876C676.224 80.9587 675.025 81.062 673.62 81.186C672.256 81.31 670.851 81.3927 669.404 81.434C667.999 81.5167 666.717 81.558 665.56 81.558ZM656.756 64.136H675.232C675.232 59.672 674.509 56.5513 673.062 54.774C671.657 52.9553 669.425 52.046 666.366 52.046C663.39 52.046 661.034 52.976 659.298 54.836C657.603 56.6547 656.756 59.7547 656.756 64.136ZM686.202 81V50H689.178V54.65C689.963 54.03 690.976 53.3687 692.216 52.666C693.497 51.9633 694.902 51.302 696.432 50.682C698.002 50.062 699.573 49.628 701.144 49.38V52.418C699.697 52.7073 698.209 53.1413 696.68 53.72C695.15 54.2987 693.724 54.9187 692.402 55.58C691.12 56.2413 690.046 56.82 689.178 57.316V81H686.202Z" fill="white"/>
<circle cx="97.5" cy="100.5" r="12.5" fill="#03D1EB"/>
<path fill-rule="evenodd" clip-rule="evenodd" d="M80 63C80 79.5685 66.5685 93 50 93C33.4315 93 20 79.5685 20 63C20 46.4315 33.4315 33 50 33C66.5685 33 80 46.4315 80 63ZM75.202 106.193C67.8022 110.52 59.1907 113 50 113C22.3858 113 0 90.6142 0 63C0 35.3858 22.3858 13 50 13C77.6142 13 100 35.3858 100 63C100 68.2652 99.1862 73.3403 97.6774 78.1065C84.9592 79.2781 75 89.976 75 103C75 104.082 75.0687 105.148 75.202 106.193Z" fill="#03D1EB"/>
</svg>
